<svg id="Capa_1" data-name="Capa 1" xmlns="http://www.w3.org/2000/svg" viewBox="0 0 75 75"><path d="M26,23.33a15,15,0,0,0,4.57-5.55,5,5,0,0,1,2.12-2.57c-.24-.77-1-1.49.59-2.84a9,9,0,0,1,1.51,1.36,11.73,11.73,0,0,1,9.69,1.9c8.17,6.1,6.33,26.18,2.83,30.9h0l.08.41h0a1.14,1.14,0,0,1,1.06.92A1,1,0,0,1,47.85,49l0,.32h0c.92,1.52,2.28,3.49,2.41,5.44a8,8,0,0,1-1.35,5.13h0l.15.37a2.86,2.86,0,0,1,.78.94,5.73,5.73,0,0,1,.2,1.48H28.94a6.76,6.76,0,0,1,.22-1.44,3.21,3.21,0,0,1,.75-1l.16-.37h0a7.16,7.16,0,0,1-1.35-4.75,13.22,13.22,0,0,1,2.19-5.82h0l0-.31h-.11a1,1,0,0,1-.68-1.1,1.14,1.14,0,0,1,1.06-.92h0l.06-.41h0l-.91-7.25c3.76-3,7.75-8.69,7.61-14,0-.94-.83-.83-.86-.15-.05,1.3-.8,3.56-3.56,2.81a7.1,7.1,0,0,0-4.19-.11c-1.1.42-1.31.94-2.32,1.45a9.66,9.66,0,0,1-1.75-2.39C24.6,25.51,24.17,24.57,26,23.33Z"/></svg>