<svg id="Capa_1" data-name="Capa 1" xmlns="http://www.w3.org/2000/svg" viewBox="0 0 75 75"><path d="M46.35,59.32l-.06-.46a7.5,7.5,0,0,0,1.38-4.42C47.58,52.63,45.56,49,45.56,49s.87-.46.74-1a1.13,1.13,0,0,0-1-.85h-.07c-.65-.91-4-8.44-4.15-11H43c.14,0,1-.41.94-1.14a1.61,1.61,0,0,0-1.14-1.31H41.57l0-3.3a1,1,0,0,0,1-.91,1,1,0,0,0-1-.93c1.67-1.38,2.27-4.08,1.57-5.49-1.14-2.28-2.37-3.54-4.69-6.56A1.55,1.55,0,0,0,39.4,15a1.58,1.58,0,0,0-1.75-1.51A1.43,1.43,0,0,0,36.08,15a1.46,1.46,0,0,0,.83,1.47c-.64.82-1.62,2.07-2.09,2.69l1.63,3.12s.29.48-.23.5a.59.59,0,0,1-.58-.45l-1.28-2.49A23.21,23.21,0,0,0,32.13,23c-.71,1.41,0,4.11,1.66,5.49a1,1,0,0,0-1,.93.94.94,0,0,0,.85.9l.14,3.31h-.86a1.53,1.53,0,0,0-1.18,1.25c-.09.73.85,1.19,1,1.2h1.43C35,39.79,32,43.89,30.4,46.78l-.34.33H30A1.12,1.12,0,0,0,29,48a.93.93,0,0,0,.69,1l-.06.31h0c-.77,1.39-2.16,3.19-2.27,5A8,8,0,0,0,28.71,59l0,.32H28.6a2.53,2.53,0,0,0-.66.87,5.45,5.45,0,0,0-.16,1.35H47.15A7.2,7.2,0,0,0,47,60.2Z"/></svg>