<svg id="Capa_1" data-name="Capa 1" xmlns="http://www.w3.org/2000/svg" viewBox="0 0 75 75"><path d="M45.08,54.23l0-.46a5.19,5.19,0,0,0,1-3.42A9.74,9.74,0,0,0,44.26,46v-.26h.06a.73.73,0,0,0,.54-.83A.89.89,0,0,0,44,44.2H44L43.9,44l-.07-.12A48.38,48.38,0,0,1,40,32.48h2.6c.13,0,1.44-.7,1.36-1.81a2.22,2.22,0,0,0-1.57-1.89h-2.7v0a5.06,5.06,0,1,0-4.38,0v0H32.54A2.18,2.18,0,0,0,31,30.67c-.08,1.11,1.18,1.79,1.31,1.81H35a60.66,60.66,0,0,1-3.32,11.29l-.24.43h-.13a.89.89,0,0,0-.83.69.72.72,0,0,0,.53.83h0L31,45.9l0,.08c-.72,1.14-1.79,2.62-1.89,4.09a5.79,5.79,0,0,0,1,3.78L30,54.2l-.58.69A3.72,3.72,0,0,0,29.21,56H45.8a5.31,5.31,0,0,0-.18-1.08Z"/></svg>