<?xml version="1.0" encoding="UTF-8"?>
<svg width="134px" height="23px" viewBox="0 0 134 23" version="1.1" xmlns="http://www.w3.org/2000/svg" xmlns:xlink="http://www.w3.org/1999/xlink">
    <!-- Generator: Sketch 55.2 (78181) - https://sketchapp.com -->
    <title>logo</title>
    <desc>Created with Sketch.</desc>
    <g id="Page-1" stroke="none" stroke-width="1" fill="none" fill-rule="evenodd">
        <g id="Logo_flat" transform="translate(-88.000000, -184.000000)" fill="#FFFFFF" fill-rule="nonzero">
            <path d="M102.514437,200.805418 C102.524412,202.057153 102.235124,203.151174 101.646563,204.087511 C101.058002,205.023849 100.240015,205.74334 99.1925759,206.246006 C98.1451371,206.748671 96.9580576,207 95.6313017,207 C93.9853265,207 92.5887623,206.655039 91.4415675,205.965106 C90.2943726,205.275173 89.4339893,204.316673 88.8603919,203.089578 C88.2867944,201.862482 88,200.445677 88,198.839118 L88,198.587787 C88,196.981229 88.2867944,195.561959 88.8603919,194.329936 C89.4339893,193.097912 90.2918787,192.136949 91.4340858,191.447016 C92.5762929,190.757083 93.9653754,190.412121 95.6013751,190.412121 C96.9680333,190.412121 98.1750638,190.665914 99.2225026,191.173508 C100.269941,191.681101 101.082941,192.43016 101.661526,193.420707 C102.240112,194.411254 102.524412,195.606298 102.514437,197.005877 L97.4867555,197.005877 C97.5067067,196.315944 97.3470994,195.759078 97.0079287,195.335262 C96.6687581,194.911446 96.155022,194.699541 95.466705,194.699541 C94.8681686,194.699541 94.4167791,194.862165 94.1125231,195.18742 C93.808267,195.512674 93.606264,195.948804 93.5065079,196.495822 C93.4067518,197.04284 93.3568746,197.740155 93.3568746,198.587787 L93.3568746,198.839118 C93.3568746,199.706463 93.4067518,200.41117 93.5065079,200.95326 C93.606264,201.49535 93.8107609,201.924088 94.1200047,202.239486 C94.4292486,202.554884 94.8881196,202.71258 95.4966317,202.71258 C96.1649974,202.71258 96.6687581,202.549956 97.0079287,202.224702 C97.3470994,201.899447 97.5067067,201.426358 97.4867555,200.805418 L102.514437,200.805418 Z M113.278927,190.38054 C114.976238,190.38054 116.306275,190.895094 117.269078,191.924219 C118.23188,192.953343 118.713274,194.599918 118.713274,196.863991 L118.713274,206.581818 L113.35337,206.581818 L113.35337,196.834588 C113.35337,195.981885 113.174708,195.398723 112.817379,195.085085 C112.460051,194.771447 111.919103,194.614631 111.194519,194.614631 C110.291272,194.614631 109.641142,194.849856 109.24411,195.320312 L109.24411,206.581818 L103.913982,206.581818 L103.913982,184 L109.24411,184 L109.24411,192.350568 C109.750325,191.723292 110.345864,191.238141 111.030744,190.895099 C111.715625,190.552058 112.465011,190.38054 113.278927,190.38054 Z M135.326903,200.480165 L125.495256,200.480165 C125.704759,201.189811 126.096325,201.739285 126.669965,202.128604 C127.243606,202.517924 127.95441,202.71258 128.8024,202.71258 C129.520698,202.71258 130.201574,202.594308 130.845048,202.357759 C131.488523,202.121211 132.03472,201.736825 132.483656,201.204591 L134.863005,204.29449 C134.503856,204.767587 134.012528,205.208645 133.389006,205.617677 C132.765484,206.026709 132.029739,206.35935 131.181749,206.615611 C130.333759,206.871871 129.420936,207 128.443253,207 C126.707368,207 125.195973,206.645183 123.909023,205.935537 C122.622074,205.225892 121.641912,204.277248 120.968508,203.089578 C120.295104,201.901907 119.958407,200.61323 119.958407,199.223508 L119.958407,198.676492 C119.958407,197.129071 120.247717,195.731977 120.826345,194.48517 C121.404974,193.238362 122.287868,192.24783 123.475054,191.513545 C124.66224,190.779259 126.128742,190.412121 127.874604,190.412121 C129.39101,190.412121 130.710363,190.722586 131.832702,191.343526 C132.955042,191.964466 133.817984,192.861365 134.421553,194.034252 C135.025122,195.207138 135.326903,196.601767 135.326903,198.218182 L135.326903,200.480165 Z M130.060265,196.65935 C130.100389,195.282403 129.338054,194.593939 127.773238,194.593939 C127.030953,194.593939 126.474248,194.818327 126.103106,195.26711 C125.731964,195.715893 125.486211,196.32786 125.365841,197.10303 L130.060265,197.10303 L130.060265,196.65935 Z M142.076982,200.598439 C140.367599,200.23376 138.993116,199.639934 137.953491,198.816942 C136.913866,197.993951 136.394061,196.91225 136.394061,195.571809 C136.394061,194.635471 136.661461,193.775532 137.196268,192.991965 C137.731075,192.208398 138.508283,191.58254 139.527915,191.114371 C140.547547,190.646202 141.757092,190.412121 143.156587,190.412121 C144.616061,190.412121 145.893081,190.628954 146.987686,191.062626 C148.082291,191.496298 148.924474,192.109837 149.514262,192.90326 C150.104049,193.696683 150.398938,194.620686 150.398938,195.675298 L145.015907,195.675298 C145.015907,195.064215 144.878459,194.628085 144.603558,194.366896 C144.328657,194.105707 143.84134,193.975115 143.141593,193.975115 C142.681759,193.975115 142.284408,194.088459 141.949529,194.315152 C141.61465,194.541844 141.447213,194.857237 141.447213,195.261341 C141.447213,196.039979 142.301892,196.562349 144.011275,196.828466 C145.230835,197.015734 146.297934,197.289239 147.212604,197.64899 C148.127274,198.008741 148.876992,198.543431 149.461781,199.253076 C150.04657,199.962722 150.33896,200.884261 150.33896,202.017723 C150.33896,202.963917 150.044071,203.814 149.454284,204.567998 C148.864496,205.321996 148.024812,205.915823 146.935205,206.349495 C145.845598,206.783167 144.581074,207 143.141593,207 C141.642134,207 140.345121,206.731423 139.250516,206.194261 C138.155911,205.657099 137.321225,204.967176 136.746432,204.124472 C136.17164,203.281768 135.884248,202.421829 135.884248,201.544628 L140.877421,201.544628 C140.897414,202.165568 141.117331,202.63373 141.53718,202.949128 C141.957028,203.264526 142.541809,203.422222 143.291538,203.422222 C143.901318,203.422222 144.368642,203.306414 144.693525,203.074793 C145.018408,202.843173 145.180847,202.530244 145.180847,202.135996 C145.180847,201.899448 145.088382,201.699863 144.903448,201.537236 C144.718515,201.374609 144.408632,201.22184 143.973788,201.078926 C143.538945,200.936011 142.906683,200.77585 142.076982,200.598439 Z M157.137159,200.598439 C155.427776,200.23376 154.053293,199.639934 153.013668,198.816942 C151.974043,197.993951 151.454238,196.91225 151.454238,195.571809 C151.454238,194.635471 151.721638,193.775532 152.256445,192.991965 C152.791252,192.208398 153.56846,191.58254 154.588092,191.114371 C155.607724,190.646202 156.817269,190.412121 158.216764,190.412121 C159.676238,190.412121 160.953258,190.628954 162.047863,191.062626 C163.142468,191.496298 163.984651,192.109837 164.574439,192.90326 C165.164226,193.696683 165.459115,194.620686 165.459115,195.675298 L160.076084,195.675298 C160.076084,195.064215 159.938636,194.628085 159.663735,194.366896 C159.388834,194.105707 158.901517,193.975115 158.20177,193.975115 C157.741936,193.975115 157.344585,194.088459 157.009706,194.315152 C156.674827,194.541844 156.50739,194.857237 156.50739,195.261341 C156.50739,196.039979 157.362069,196.562349 159.071452,196.828466 C160.291012,197.015734 161.358111,197.289239 162.272781,197.64899 C163.187451,198.008741 163.937169,198.543431 164.521958,199.253076 C165.106747,199.962722 165.399137,200.884261 165.399137,202.017723 C165.399137,202.963917 165.104248,203.814 164.514461,204.567998 C163.924673,205.321996 163.084989,205.915823 161.995382,206.349495 C160.905775,206.783167 159.641251,207 158.20177,207 C156.702311,207 155.405298,206.731423 154.310693,206.194261 C153.216088,205.657099 152.381402,204.967176 151.806609,204.124472 C151.231817,203.281768 150.944425,202.421829 150.944425,201.544628 L155.937598,201.544628 C155.957591,202.165568 156.177508,202.63373 156.597357,202.949128 C157.017205,203.264526 157.601986,203.422222 158.351715,203.422222 C158.961495,203.422222 159.428819,203.306414 159.753702,203.074793 C160.078585,202.843173 160.241024,202.530244 160.241024,202.135996 C160.241024,201.899448 160.148559,201.699863 159.963625,201.537236 C159.778692,201.374609 159.468809,201.22184 159.033965,201.078926 C158.599122,200.936011 157.96686,200.77585 157.137159,200.598439 Z M180.383167,202.505601 C180.383167,203.619351 180.438443,204.444794 180.548997,204.981956 C180.659551,205.519118 180.835429,206.009456 181.076637,206.452984 L181.076637,206.704316 L175.694705,206.704316 C175.523849,206.359349 175.373096,205.901044 175.242442,205.329385 C174.810277,205.861619 174.292692,206.273108 173.689671,206.563866 C173.086651,206.854623 172.312786,207 171.368054,207 C170.38312,207 169.468552,206.797951 168.624323,206.393848 C167.780095,205.989744 167.106732,205.420558 166.604214,204.686272 C166.101697,203.951986 165.850442,203.116687 165.850442,202.180349 C165.850442,200.504797 166.481092,199.211192 167.74241,198.299495 C169.003728,197.387798 170.940903,196.931956 173.553992,196.931956 L174.956008,196.931956 L174.956008,196.192746 C174.956008,195.552094 174.817818,195.06422 174.541434,194.729109 C174.265049,194.393999 173.820328,194.226446 173.207257,194.226446 C172.674589,194.226446 172.280119,194.347183 172.023835,194.588659 C171.767552,194.830136 171.639412,195.226841 171.639412,195.778788 L166.242404,195.778788 C166.242404,194.724176 166.538885,193.790316 167.131855,192.977181 C167.724825,192.164046 168.569041,191.533259 169.664529,191.084803 C170.760016,190.636346 172.036391,190.412121 173.493691,190.412121 C174.820336,190.412121 176.003746,190.631418 177.043957,191.070018 C178.084167,191.508619 178.900746,192.164045 179.493716,193.036318 C180.086686,193.90859 180.383167,194.970578 180.383167,196.222314 L180.383167,202.505601 Z M172.660639,203.09697 C173.181254,203.09697 173.627145,203.001176 173.998325,202.809585 C174.369505,202.617994 174.64186,202.374825 174.815398,202.080069 L174.815398,199.751515 L173.35479,199.751515 C172.602789,199.751515 172.06531,199.965209 171.742335,200.392604 C171.419361,200.819999 171.257876,201.328445 171.257876,201.917955 C171.257876,202.271661 171.392848,202.556587 171.662797,202.772741 C171.932746,202.988894 172.265357,203.09697 172.660639,203.09697 Z M191.074527,190.415167 C192.497449,190.415167 193.682365,190.760065 194.62931,191.449871 C195.576255,192.139678 196.277685,193.093074 196.733621,194.31009 C197.189557,195.527105 197.417522,196.92887 197.417522,198.515424 L197.417522,198.825835 C197.417522,201.368265 196.893955,203.36621 195.846804,204.81973 C194.799654,206.273251 193.218931,207 191.104588,207 C189.501296,207 188.20866,206.349621 187.226644,205.048843 L187.001182,206.70437 L182.191327,206.70437 L182.191327,184 L187.572352,184 L187.572352,191.952442 C188.504266,190.927587 189.671646,190.415167 191.074527,190.415167 Z M192.010088,198.436829 C192.010088,197.214981 191.861059,196.269048 191.562994,195.599003 C191.26493,194.928957 190.678426,194.593939 189.803463,194.593939 C188.813121,194.593939 188.125661,194.938811 187.741062,195.628564 L187.741062,201.673724 C187.933361,202.018601 188.197769,202.272328 188.534293,202.434912 C188.870817,202.597497 189.303485,202.678788 189.832308,202.678788 C190.466896,202.678788 190.940427,202.526059 191.252913,202.220597 C191.5654,201.915135 191.769715,201.491436 191.865865,200.949488 C191.962014,200.407539 192.010088,199.673456 192.010088,198.747216 L192.010088,198.436829 Z M222,200.480165 L212.168353,200.480165 C212.377856,201.189811 212.769422,201.739285 213.343063,202.128604 C213.916703,202.517924 214.627507,202.71258 215.475497,202.71258 C216.193795,202.71258 216.874671,202.594308 217.518146,202.357759 C218.16162,202.121211 218.707818,201.736825 219.156753,201.204591 L221.536102,204.29449 C221.176953,204.767587 220.685625,205.208645 220.062103,205.617677 C219.438581,206.026709 218.702836,206.35935 217.854846,206.615611 C217.006856,206.871871 216.094033,207 215.116351,207 C213.380465,207 211.86907,206.645183 210.582121,205.935537 C209.295171,205.225892 208.315009,204.277248 207.641605,203.089578 C206.968201,201.901907 206.631504,200.61323 206.631504,199.223508 L206.631504,198.676492 C206.631504,197.129071 206.920814,195.731977 207.499443,194.48517 C208.078071,193.238362 208.960965,192.24783 210.148151,191.513545 C211.335337,190.779259 212.801839,190.412121 214.547701,190.412121 C216.064107,190.412121 217.38346,190.722586 218.5058,191.343526 C219.628139,191.964466 220.491081,192.861365 221.09465,194.034252 C221.69822,195.207138 222,196.601767 222,198.218182 L222,200.480165 Z M216.733363,196.65935 C216.773486,195.282403 216.011151,194.593939 214.446335,194.593939 C213.704051,194.593939 213.147346,194.818327 212.776203,195.26711 C212.405061,195.715893 212.159309,196.32786 212.038938,197.10303 L216.733363,197.10303 L216.733363,196.65935 Z M205.950536,203.160581 L207.865231,204.3321 C208.064696,204.454144 208.127457,204.714778 208.005414,204.914242 C207.928475,205.039989 207.791669,205.116666 207.644251,205.116666 L197.095372,205.116666 C196.861533,205.116666 196.671969,204.927102 196.671969,204.693263 C196.671969,204.544331 196.750216,204.406351 196.878028,204.3299 L198.776799,203.194158 L198.756851,203.194158 L199.680464,188.434337 L204.721853,188.434337 L205.950536,203.160581 Z M196.83969,205.668713 L207.908983,205.668713 C208.231678,205.668713 208.493274,205.930309 208.493274,206.253005 C208.493274,206.5757 208.231678,206.837296 207.908983,206.837296 L196.83969,206.837296 C196.516994,206.837296 196.255398,206.5757 196.255398,206.253005 C196.255398,205.930309 196.516994,205.668713 196.83969,205.668713 Z M201.889352,186.902609 L202.697513,186.902609 L202.697513,184 L206.314999,184 L206.314999,186.902609 L206.314999,187.636659 C206.314999,188.168112 205.884171,188.598939 205.352719,188.598939 L199.234146,188.598939 C198.702694,188.598939 198.271866,188.168112 198.271866,187.636659 L198.271866,186.902609 L198.271866,184 L201.889352,184 L201.889352,186.902609 Z" id="logo"></path>
        </g>
    </g>
</svg>