<svg id="Capa_1" data-name="Capa 1" xmlns="http://www.w3.org/2000/svg" viewBox="0 0 75 75"><defs><style>.cls-1{fill:#fff;}</style></defs><path class="cls-1" d="M45.26,60.45l0-.42a4.92,4.92,0,0,0,.92-3.28,9.31,9.31,0,0,0-1.63-4.17l-.08-.2.1-.09a.69.69,0,0,0,.51-.8.85.85,0,0,0-.8-.67h-.14V50.6c-1.69-3.87-3.31-6-3.8-13.18l.13-.61h1.68A1.24,1.24,0,0,0,43,35.59a1.61,1.61,0,0,0-1-1.38h-.79l-.21-4.54s2.69-4,3.12-4.64a3.58,3.58,0,0,0,.58-1.76,2.57,2.57,0,0,0-2.54-2.59H40.66V20a.73.73,0,0,0-.72-.74H35.07a.74.74,0,0,0-.73.74v.64H32.91a2.57,2.57,0,0,0-2.54,2.59A3.58,3.58,0,0,0,31,25c.42.68,3.15,4.76,3.15,4.76l-.25,4.42h-.76A1.5,1.5,0,0,0,32,35.53a1.36,1.36,0,0,0,.88,1.27h1.68l.14.26c-.46,7.43-1.86,9.6-3.58,13.53v.11l0,.11H31a.86.86,0,0,0-.8.67.7.7,0,0,0,.47.79v.15l0,.11c-.7,1.1-1.73,2.52-1.84,3.93a5.66,5.66,0,0,0,1,3.72h0l-.07.24h-.06a2.1,2.1,0,0,0-.59.69A3.84,3.84,0,0,0,29,62.19H46a4.65,4.65,0,0,0-.17-1Z"/><path class="cls-1" d="M35.31,17.11c.64-.67,1.42-1,1.72-.65s0,1.1-.64,1.76l-.31.28a2.93,2.93,0,0,0,3.09,0l-.33-.3c-.65-.67-.94-1.46-.64-1.76s1.07,0,1.73.65l.29.33a3.13,3.13,0,0,0,0-3.15l-.26.29c-.65.67-1.42,1-1.72.65s0-1.09.63-1.76l.28-.25a3,3,0,0,0-3,0l.31.28c.66.67.94,1.46.64,1.76s-1.07,0-1.72-.64l-.29-.33a3.06,3.06,0,0,0-.44,1.59,3.14,3.14,0,0,0,.4,1.53Z"/></svg>