<svg id="Capa_1" data-name="Capa 1" xmlns="http://www.w3.org/2000/svg" viewBox="0 0 75 75"><path d="M37.78,19.45a3,3,0,1,0-3.05-3.05A3.05,3.05,0,0,0,37.78,19.45Z"/><path d="M46,59.83h0l-.08-.29A5,5,0,0,0,47,56a9.55,9.55,0,0,0-1.77-4.36h0l.07-.26h0a.72.72,0,0,0,.55-.82.93.93,0,0,0-.85-.7h0l-.18-.3h0c-1.84-3.39-3.6-6.37-4.1-14.12l0-.22h2.18a1.42,1.42,0,0,0,1-1.36,1.83,1.83,0,0,0-1.18-1.57H41.1v0C40.84,27.93,43,24,44.73,22.84a1.61,1.61,0,0,0,.58-2.32,1.54,1.54,0,0,0-1.67-.64,5.18,5.18,0,0,1-1.79.64A3.58,3.58,0,0,1,40,19.89l-.22-.18h0l-.11.11a3.63,3.63,0,0,1-1.95.78,3.75,3.75,0,0,1-2.09-.89,3.72,3.72,0,0,1-2.12.81,5,5,0,0,1-1.78-.64,1.53,1.53,0,0,0-1.67.64,1.61,1.61,0,0,0,.56,2.32c1.72,1.2,3.91,5.11,3.64,9.47H32.45a1.72,1.72,0,0,0-1.23,1.49,1.57,1.57,0,0,0,1,1.44h2.4l.08.22h0c-.5,7.75-2.21,10.63-4.08,14.12h0l-.16.3h-.1a.91.91,0,0,0-.85.7.72.72,0,0,0,.52.82l0,.26h0c-.73,1.13-1.83,2.61-1.94,4.08a5.76,5.76,0,0,0,1.07,3.8l0,.29h0a2.2,2.2,0,0,0-.63.71,3.67,3.67,0,0,0-.16,1.1H46.76a5.06,5.06,0,0,0-.17-1.08A2.54,2.54,0,0,0,46,59.83Z"/></svg>